<?xml version="1.0" encoding="UTF-8"?>
<svg xmlns="http://www.w3.org/2000/svg" xmlns:xlink="http://www.w3.org/1999/xlink" viewBox="0 0 24 24" width="24px" height="24px">
<g id="surface882281">
<path style=" stroke:none;fill-rule:nonzero;fill:rgb(80.000001%,80.000001%,80.000001%);fill-opacity:1;" d="M 2.878906 24 C 1.289062 24 0 22.710938 0 21.121094 L 0 2.878906 C 0 1.289062 1.289062 0 2.878906 0 L 21.121094 0 C 22.710938 0 24 1.289062 24 2.878906 L 24 21.121094 C 24 22.710938 22.710938 24 21.121094 24 Z M 2.878906 24 "/>
<path style=" stroke:none;fill-rule:nonzero;fill:rgb(0%,0%,0%);fill-opacity:1;" d="M 16.523438 9.570312 L 13.667969 9.570312 L 13.667969 7.949219 C 13.667969 7.113281 13.738281 6.585938 14.9375 6.585938 L 16.449219 6.585938 L 16.449219 4.011719 C 15.710938 3.9375 14.972656 3.898438 14.230469 3.898438 C 12.035156 3.898438 10.429688 5.242188 10.429688 7.707031 L 10.429688 9.570312 L 8 9.570312 L 8 12.808594 L 10.429688 12.808594 L 10.429688 20.101562 L 13.667969 20.101562 L 13.667969 12.808594 L 16.152344 12.808594 Z M 16.523438 9.570312 "/>
</g>
</svg>
