<?xml version="1.0" encoding="UTF-8"?>
<svg xmlns="http://www.w3.org/2000/svg" xmlns:xlink="http://www.w3.org/1999/xlink" viewBox="0 0 24 24" width="24px" height="24px">
<g id="surface1591081">
<path style=" stroke:none;fill-rule:nonzero;fill:rgb(80.000001%,80.000001%,80.000001%);fill-opacity:1;" d="M 2.878906 24 C 1.289062 24 0 22.710938 0 21.121094 L 0 2.878906 C 0 1.289062 1.289062 0 2.878906 0 L 21.121094 0 C 22.710938 0 24 1.289062 24 2.878906 L 24 21.121094 C 24 22.710938 22.710938 24 21.121094 24 Z M 2.878906 24 "/>
<path style=" stroke:none;fill-rule:nonzero;fill:rgb(0%,0%,0%);fill-opacity:1;" d="M 19.511719 15.945312 C 18.894531 14.828125 17.292969 13.484375 16.636719 12.902344 C 16.453125 12.742188 16.433594 12.464844 16.597656 12.289062 C 17.859375 10.9375 18.867188 9.382812 19.210938 8.441406 C 19.363281 8.027344 19.046875 7.589844 18.601562 7.589844 L 17.308594 7.589844 C 16.878906 7.589844 16.628906 7.742188 16.511719 7.984375 C 15.464844 10.128906 14.566406 11.058594 13.9375 11.601562 C 13.585938 11.90625 13.039062 11.652344 13.039062 11.191406 C 13.039062 10.300781 13.039062 9.148438 13.039062 8.332031 C 13.039062 7.9375 12.714844 7.617188 12.316406 7.617188 L 9.949219 7.589844 C 9.648438 7.589844 9.480469 7.925781 9.660156 8.164062 L 10.050781 8.722656 C 10.195312 8.917969 10.277344 9.152344 10.277344 9.398438 L 10.273438 11.921875 C 10.273438 12.363281 9.742188 12.578125 9.425781 12.269531 C 8.355469 11.226562 7.425781 9.101562 7.09375 8.082031 C 6.996094 7.789062 6.71875 7.589844 6.40625 7.589844 L 5.128906 7.585938 C 4.652344 7.585938 4.300781 8.039062 4.433594 8.496094 C 5.597656 12.589844 7.992188 16.484375 12.253906 16.90625 C 12.675781 16.949219 13.039062 16.609375 13.039062 16.191406 L 13.039062 14.863281 C 13.039062 14.480469 13.335938 14.15625 13.71875 14.144531 C 13.734375 14.144531 13.746094 14.144531 13.761719 14.144531 C 14.890625 14.144531 16.152344 15.785156 16.59375 16.554688 C 16.722656 16.773438 16.957031 16.910156 17.214844 16.910156 L 18.933594 16.910156 C 19.433594 16.910156 19.753906 16.378906 19.511719 15.945312 Z M 19.511719 15.945312 "/>
</g>
</svg>
