<?xml version="1.0" encoding="UTF-8"?>
<svg xmlns="http://www.w3.org/2000/svg" xmlns:xlink="http://www.w3.org/1999/xlink" viewBox="0 0 24 24" width="24px" height="24px">
<g id="surface1597699">
<path style=" stroke:none;fill-rule:nonzero;fill:rgb(80.000001%,80.000001%,80.000001%);fill-opacity:1;" d="M 2.878906 24 C 1.289062 24 0 22.710938 0 21.121094 L 0 2.878906 C 0 1.289062 1.289062 0 2.878906 0 L 21.121094 0 C 22.710938 0 24 1.289062 24 2.878906 L 24 21.121094 C 24 22.710938 22.710938 24 21.121094 24 Z M 2.878906 24 "/>
<path style=" stroke:none;fill-rule:nonzero;fill:rgb(0%,0%,0%);fill-opacity:1;" d="M 5.480469 7.566406 C 4.691406 7.566406 4.09375 8.34375 4.308594 9.101562 C 4.875 11.085938 5.714844 13.027344 6.964844 14.554688 C 8.214844 16.082031 9.902344 17.1875 12.066406 17.40625 C 12.785156 17.480469 13.40625 16.894531 13.40625 16.179688 L 13.40625 14.761719 C 13.40625 14.671875 13.46875 14.609375 13.535156 14.605469 C 13.546875 14.605469 13.558594 14.605469 13.566406 14.605469 C 13.8125 14.605469 14.324219 14.917969 14.773438 15.402344 C 15.21875 15.882812 15.617188 16.484375 15.808594 16.816406 C 16.023438 17.191406 16.425781 17.417969 16.851562 17.417969 L 18.5625 17.417969 C 19.414062 17.417969 19.984375 16.453125 19.570312 15.710938 C 18.914062 14.539062 17.609375 13.378906 16.957031 12.804688 C 18.152344 11.488281 18.945312 10.058594 19.296875 9.105469 C 19.5625 8.390625 19.015625 7.582031 18.242188 7.582031 L 17.023438 7.582031 C 16.492188 7.582031 15.996094 7.839844 15.792969 8.253906 C 14.84375 10.203125 13.996094 10.917969 13.398438 11.433594 L 13.398438 8.789062 C 13.398438 8.132812 12.851562 7.589844 12.195312 7.585938 L 10.058594 7.582031 C 9.375 7.582031 8.953125 8.421875 9.363281 8.96875 L 9.777344 9.519531 L 9.777344 9.523438 C 9.847656 9.617188 9.882812 9.726562 9.882812 9.84375 L 9.894531 12.046875 C 9.042969 11.152344 8.117188 9.25 7.839844 8.402344 C 7.675781 7.90625 7.207031 7.574219 6.691406 7.570312 Z M 5.480469 8.621094 L 6.6875 8.625 C 6.761719 8.625 6.816406 8.664062 6.839844 8.730469 C 7.183594 9.785156 8.09375 11.789062 9.25 12.914062 C 9.546875 13.207031 9.988281 13.265625 10.328125 13.125 C 10.667969 12.988281 10.945312 12.628906 10.945312 12.207031 L 10.9375 9.84375 C 10.9375 9.5 10.824219 9.164062 10.617188 8.890625 L 10.617188 8.886719 L 10.429688 8.636719 L 12.195312 8.640625 C 12.285156 8.640625 12.347656 8.699219 12.347656 8.789062 L 12.347656 11.460938 C 12.347656 12.3125 13.421875 12.804688 14.070312 12.246094 C 14.664062 11.734375 15.714844 10.820312 16.742188 8.71875 C 16.765625 8.667969 16.742188 8.636719 17.023438 8.636719 L 18.242188 8.636719 C 18.3125 8.636719 18.335938 8.667969 18.308594 8.742188 C 18.011719 9.546875 17.246094 10.957031 16.117188 12.171875 C 15.769531 12.546875 15.785156 13.167969 16.175781 13.515625 C 16.792969 14.0625 18.140625 15.316406 18.648438 16.222656 C 18.695312 16.304688 18.660156 16.363281 18.5625 16.363281 L 16.851562 16.363281 C 16.792969 16.363281 16.746094 16.335938 16.71875 16.289062 C 16.492188 15.894531 16.074219 15.257812 15.542969 14.683594 C 15.015625 14.113281 14.386719 13.554688 13.566406 13.554688 C 13.542969 13.554688 13.523438 13.554688 13.507812 13.554688 C 12.851562 13.574219 12.351562 14.128906 12.351562 14.761719 L 12.351562 16.179688 C 12.351562 16.289062 12.269531 16.367188 12.171875 16.359375 C 10.304688 16.167969 8.894531 15.25 7.777344 13.886719 C 6.660156 12.523438 5.863281 10.707031 5.324219 8.8125 C 5.292969 8.707031 5.359375 8.621094 5.480469 8.621094 Z M 5.480469 8.621094 "/>
</g>
</svg>
