<?xml version="1.0" encoding="UTF-8"?>
<svg xmlns="http://www.w3.org/2000/svg" xmlns:xlink="http://www.w3.org/1999/xlink" viewBox="0 0 24 24" width="24px" height="24px">
<g id="surface3732592">
<path style=" stroke:none;fill-rule:nonzero;fill:rgb(80.000001%,80.000001%,80.000001%);fill-opacity:1;" d="M 2.878906 24 C 1.289062 24 0 22.710938 0 21.121094 L 0 2.878906 C 0 1.289062 1.289062 0 2.878906 0 L 21.121094 0 C 22.710938 0 24 1.289062 24 2.878906 L 24 21.121094 C 24 22.710938 22.710938 24 21.121094 24 Z M 2.878906 24 "/>
<path style=" stroke:none;fill-rule:nonzero;fill:rgb(0%,0%,0%);fill-opacity:1;" d="M 8.175781 2.308594 C 4.945312 2.308594 2.308594 4.945312 2.308594 8.175781 L 2.308594 15.824219 C 2.308594 19.054688 4.945312 21.691406 8.175781 21.691406 L 15.824219 21.691406 C 19.054688 21.691406 21.691406 19.054688 21.691406 15.824219 L 21.691406 8.175781 C 21.691406 4.945312 19.054688 2.308594 15.824219 2.308594 Z M 8.175781 3.839844 L 15.824219 3.839844 C 18.226562 3.839844 20.160156 5.773438 20.160156 8.175781 L 20.160156 15.824219 C 20.160156 18.226562 18.226562 20.160156 15.824219 20.160156 L 8.175781 20.160156 C 5.773438 20.160156 3.839844 18.226562 3.839844 15.824219 L 3.839844 8.175781 C 3.839844 5.773438 5.773438 3.839844 8.175781 3.839844 Z M 17.101562 5.878906 C 16.535156 5.878906 16.078125 6.335938 16.078125 6.898438 C 16.078125 7.464844 16.535156 7.921875 17.101562 7.921875 C 17.664062 7.921875 18.121094 7.464844 18.121094 6.898438 C 18.121094 6.335938 17.664062 5.878906 17.101562 5.878906 Z M 12 6.898438 C 9.191406 6.898438 6.898438 9.191406 6.898438 12 C 6.898438 14.808594 9.191406 17.101562 12 17.101562 C 14.808594 17.101562 17.101562 14.808594 17.101562 12 C 17.101562 9.191406 14.808594 6.898438 12 6.898438 Z M 12 8.429688 C 13.980469 8.429688 15.570312 10.019531 15.570312 12 C 15.570312 13.980469 13.980469 15.570312 12 15.570312 C 10.019531 15.570312 8.429688 13.980469 8.429688 12 C 8.429688 10.019531 10.019531 8.429688 12 8.429688 Z M 12 8.429688 "/>
</g>
</svg>
