<?xml version="1.0" encoding="UTF-8"?>
<svg xmlns="http://www.w3.org/2000/svg" xmlns:xlink="http://www.w3.org/1999/xlink" viewBox="0 0 24 24" width="24px" height="24px">
<g id="surface1668319">
<path style=" stroke:none;fill-rule:nonzero;fill:rgb(80.000001%,80.000001%,80.000001%);fill-opacity:1;" d="M 2.878906 24 C 1.289062 24 0 22.710938 0 21.121094 L 0 2.878906 C 0 1.289062 1.289062 0 2.878906 0 L 21.121094 0 C 22.710938 0 24 1.289062 24 2.878906 L 24 21.121094 C 24 22.710938 22.710938 24 21.121094 24 Z M 2.878906 24 "/>
<path style=" stroke:none;fill-rule:nonzero;fill:rgb(0%,0%,0%);fill-opacity:1;" d="M 19.914062 5.199219 C 19.632812 4.960938 19.191406 4.925781 18.734375 5.109375 C 18.253906 5.300781 5.15625 10.917969 4.621094 11.148438 C 4.527344 11.183594 3.679688 11.5 3.765625 12.203125 C 3.84375 12.835938 4.523438 13.101562 4.609375 13.128906 L 7.9375 14.269531 C 8.160156 15.007812 8.972656 17.71875 9.152344 18.300781 C 9.265625 18.660156 9.449219 19.136719 9.769531 19.234375 C 10.050781 19.34375 10.332031 19.242188 10.511719 19.101562 L 12.546875 17.210938 L 15.835938 19.773438 L 15.914062 19.820312 C 16.136719 19.921875 16.351562 19.96875 16.554688 19.96875 C 16.710938 19.96875 16.863281 19.941406 17.007812 19.882812 C 17.5 19.679688 17.699219 19.210938 17.71875 19.15625 L 20.171875 6.394531 C 20.324219 5.714844 20.113281 5.367188 19.914062 5.199219 Z M 10.875 14.726562 L 9.75 17.722656 L 8.628906 13.976562 L 17.242188 7.613281 Z M 10.875 14.726562 "/>
</g>
</svg>
