<?xml version="1.0" encoding="UTF-8"?>
<svg xmlns="http://www.w3.org/2000/svg" xmlns:xlink="http://www.w3.org/1999/xlink" viewBox="0 0 24 24" width="24px" height="24px">
<g id="surface865424">
<path style=" stroke:none;fill-rule:nonzero;fill:rgb(80.000001%,80.000001%,80.000001%);fill-opacity:1;" d="M 2.878906 24 C 1.289062 24 0 22.710938 0 21.121094 L 0 2.878906 C 0 1.289062 1.289062 0 2.878906 0 L 21.121094 0 C 22.710938 0 24 1.289062 24 2.878906 L 24 21.121094 C 24 22.710938 22.710938 24 21.121094 24 Z M 2.878906 24 "/>
<path style=" stroke:none;fill-rule:nonzero;fill:rgb(0%,0%,0%);fill-opacity:1;" d="M 19.347656 5.921875 C 18.722656 6.21875 17.667969 6.765625 17.136719 6.871094 C 17.113281 6.878906 17.097656 6.886719 17.078125 6.890625 C 16.457031 6.277344 15.609375 5.898438 14.667969 5.898438 C 12.773438 5.898438 11.238281 7.4375 11.238281 9.332031 C 11.238281 9.429688 11.230469 9.613281 11.238281 9.710938 C 8.785156 9.710938 6.992188 8.433594 5.652344 6.785156 C 5.472656 6.566406 5.28125 6.679688 5.242188 6.835938 C 5.152344 7.191406 5.121094 7.785156 5.121094 8.210938 C 5.121094 9.277344 5.957031 10.328125 7.257812 10.980469 C 7.015625 11.039062 6.753906 11.085938 6.476562 11.085938 C 6.15625 11.085938 5.78125 11 5.457031 10.828125 C 5.335938 10.765625 5.078125 10.785156 5.152344 11.089844 C 5.460938 12.328125 6.871094 13.191406 8.132812 13.445312 C 7.84375 13.613281 7.234375 13.578125 6.953125 13.578125 C 6.851562 13.578125 6.488281 13.554688 6.257812 13.527344 C 6.042969 13.5 5.714844 13.554688 5.992188 13.96875 C 6.578125 14.859375 7.910156 15.417969 9.054688 15.441406 C 8 16.265625 6.277344 16.570312 4.625 16.570312 C 4.289062 16.5625 4.308594 16.941406 4.578125 17.082031 C 5.792969 17.722656 7.789062 18.101562 9.214844 18.101562 C 14.878906 18.101562 18.101562 13.78125 18.101562 9.710938 C 18.101562 9.644531 18.097656 9.507812 18.097656 9.371094 C 18.097656 9.355469 18.101562 9.34375 18.101562 9.332031 C 18.101562 9.308594 18.09375 9.289062 18.09375 9.269531 C 18.089844 9.164062 18.089844 9.070312 18.085938 9.019531 C 18.535156 8.695312 19.222656 8.132812 19.570312 7.699219 C 19.691406 7.554688 19.59375 7.375 19.433594 7.433594 C 19.019531 7.578125 18.304688 7.855469 17.855469 7.910156 C 18.753906 7.316406 19.195312 6.796875 19.578125 6.222656 C 19.707031 6.027344 19.546875 5.828125 19.347656 5.921875 Z M 19.347656 5.921875 "/>
</g>
</svg>
