<?xml version="1.0" encoding="UTF-8"?>
<svg xmlns="http://www.w3.org/2000/svg" xmlns:xlink="http://www.w3.org/1999/xlink" viewBox="0 0 24 24" width="24px" height="24px">
<g id="surface612878">
<path style=" stroke:none;fill-rule:nonzero;fill:rgb(80.000001%,80.000001%,80.000001%);fill-opacity:1;" d="M 2.878906 24 C 1.289062 24 0 22.710938 0 21.121094 L 0 2.878906 C 0 1.289062 1.289062 0 2.878906 0 L 21.121094 0 C 22.710938 0 24 1.289062 24 2.878906 L 24 21.121094 C 24 22.710938 22.710938 24 21.121094 24 Z M 2.878906 24 "/>
<path style=" stroke:none;fill-rule:nonzero;fill:rgb(0%,0%,0%);fill-opacity:1;" d="M 12 6.113281 C 9.757812 6.113281 6.851562 6.671875 6.851562 6.671875 L 6.84375 6.683594 C 5.824219 6.84375 5.042969 7.722656 5.042969 8.789062 L 5.042969 15.214844 C 5.042969 16.265625 5.808594 17.160156 6.847656 17.324219 L 6.851562 17.328125 C 6.851562 17.328125 9.757812 17.890625 12 17.890625 C 14.242188 17.890625 17.148438 17.328125 17.148438 17.328125 L 17.148438 17.324219 C 18.191406 17.164062 18.957031 16.265625 18.957031 15.214844 L 18.957031 8.789062 C 18.957031 7.734375 18.191406 6.839844 17.152344 6.675781 L 17.148438 6.671875 C 17.148438 6.671875 14.242188 6.113281 12 6.113281 Z M 10.394531 9.535156 L 14.675781 12 L 10.394531 14.464844 Z M 10.394531 9.535156 "/>
</g>
</svg>
