<?xml version="1.0" encoding="UTF-8"?>
<svg xmlns="http://www.w3.org/2000/svg" xmlns:xlink="http://www.w3.org/1999/xlink" viewBox="0 0 24 24" width="24px" height="24px">
<g id="surface3804968">
<path style=" stroke:none;fill-rule:nonzero;fill:rgb(80.000001%,80.000001%,80.000001%);fill-opacity:1;" d="M 2.878906 24 C 1.289062 24 0 22.710938 0 21.121094 L 0 2.878906 C 0 1.289062 1.289062 0 2.878906 0 L 21.121094 0 C 22.710938 0 24 1.289062 24 2.878906 L 24 21.121094 C 24 22.710938 22.710938 24 21.121094 24 Z M 2.878906 24 "/>
<path style=" stroke:none;fill-rule:nonzero;fill:rgb(0%,0%,0%);fill-opacity:1;" d="M 12 3.199219 C 9.570312 3.199219 7.601562 5.167969 7.601562 7.601562 C 7.601562 10.03125 9.570312 12 12 12 C 14.429688 12 16.398438 10.03125 16.398438 7.601562 C 16.398438 5.167969 14.429688 3.199219 12 3.199219 Z M 12 5.980469 C 12.894531 5.980469 13.621094 6.703125 13.621094 7.601562 C 13.621094 8.496094 12.894531 9.222656 12 9.222656 C 11.105469 9.222656 10.378906 8.496094 10.378906 7.601562 C 10.378906 6.703125 11.105469 5.980469 12 5.980469 Z M 15.675781 12.019531 C 15.359375 12.003906 15.050781 12.082031 14.773438 12.246094 C 13.113281 13.246094 10.882812 13.246094 9.226562 12.246094 C 8.46875 11.792969 7.484375 12.035156 7.027344 12.792969 C 6.808594 13.160156 6.742188 13.589844 6.847656 14.003906 C 6.949219 14.417969 7.207031 14.769531 7.574219 14.988281 C 8.160156 15.339844 8.785156 15.621094 9.441406 15.824219 L 7.203125 18.136719 C 6.921875 18.457031 6.777344 18.867188 6.800781 19.292969 C 6.828125 19.71875 7.015625 20.109375 7.335938 20.394531 C 7.640625 20.667969 8.023438 20.800781 8.402344 20.800781 C 8.839844 20.800781 9.277344 20.621094 9.585938 20.273438 L 12 17.777344 L 14.40625 20.261719 C 14.707031 20.601562 15.144531 20.796875 15.601562 20.796875 C 15.992188 20.796875 16.371094 20.652344 16.664062 20.394531 C 17.324219 19.808594 17.382812 18.792969 16.785156 18.121094 L 14.558594 15.824219 C 15.214844 15.621094 15.84375 15.339844 16.425781 14.988281 C 16.792969 14.765625 17.050781 14.417969 17.152344 14.003906 C 17.257812 13.589844 17.191406 13.15625 16.972656 12.792969 C 16.75 12.425781 16.402344 12.167969 15.988281 12.066406 C 15.882812 12.039062 15.777344 12.023438 15.675781 12.019531 Z M 15.675781 12.019531 "/>
</g>
</svg>
